<svg width="202" height="44" viewBox="0 0 202 44" fill="none" xmlns="http://www.w3.org/2000/svg">
<path d="M32.4968 2.79986C34.4618 2.70952 36.9821 2.77595 38.99 2.77639L51.0779 2.77863L87.7098 2.77868L199.166 2.77684C198.602 3.90864 197.405 5.70864 196.718 6.8533C194.799 10.0925 192.855 13.3169 190.886 16.5262C189.798 18.3179 188.217 20.7471 187.324 22.5699C187.795 22.5514 189.103 22.4595 189.5 22.6445C189.277 23.2779 188.451 24.5236 188.095 25.1773C186.764 27.6173 184.912 30.2569 183.664 32.7004C180.002 32.859 181.699 32.2986 179.559 35.0777C176.869 38.5713 171.821 41.1381 167.367 41.1766L2.23401 41.1693C2.58953 40.3723 3.37242 39.1375 3.83884 38.3484C4.91322 36.5117 6.01001 34.6882 7.12898 32.8783C9.20658 29.4527 11.5968 25.1665 13.8268 21.9032C12.61 21.8226 10.9616 21.872 9.68251 21.8447C10.1029 21.2536 10.4467 20.5518 10.8495 19.918C12.4816 17.3446 13.8648 14.5717 15.5727 12.0555C15.928 11.5321 19.1905 11.6518 19.9524 11.6329C22.7612 6.63911 26.7613 3.71597 32.4968 2.79986Z" fill="white"/>
<path d="M37.0937 3.88804C44.2382 3.80155 51.5604 3.88442 58.716 3.88428L101.302 3.88368L193.695 3.89414C192.861 5.60872 190.718 8.92364 189.682 10.6322L182.299 22.8601L177.829 30.2688C177.161 31.3792 175.926 33.55 175.149 34.4618C172.415 37.6744 168.607 39.7734 164.362 40.0748C158.555 40.1778 152.413 40.0837 146.593 40.0838L111.824 40.0842L7.60876 40.0845C8.46378 38.399 10.1262 35.8226 11.1279 34.1683L17.634 23.4118L22.9053 14.6685C23.9447 12.9492 25.4174 10.2573 26.7322 8.87216C29.4094 6.05204 33.1854 4.05241 37.0937 3.88804Z" fill="white"/>
<path d="M44.2854 6.23817C45.7521 6.11898 48.1411 6.18738 49.6693 6.18861L59.3091 6.19471L89.4248 6.19465L181.882 6.20287C181.171 7.57647 179.887 9.56791 179.062 10.9372L173.5 20.1379L168.951 27.6625C167.307 30.4061 166.009 33.1124 163.372 35.055C161.298 36.5822 159.595 37.2854 157.062 37.7118C156.38 37.8213 154.03 37.7791 153.215 37.7785L145.623 37.7728L117.808 37.775L19.4501 37.7643C20.1156 36.4294 21.4385 34.3841 22.251 33.0373L27.7723 23.9105L32.5274 16.0194C33.3914 14.5841 34.4921 12.6363 35.463 11.3408C37.4379 8.70608 41.0153 6.67064 44.2854 6.23817Z" fill="#15007E"/>
<path d="M89.8035 26.7186L93.9052 26.7261C93.6142 27.9044 93.1606 29.0575 92.7779 30.2104C92.1735 32.0754 91.5521 33.935 90.9141 35.7889L87.9689 35.7768L88.4986 34.1168C88.8163 33.0854 89.1675 32.0646 89.552 31.0562C88.3465 32.6191 87.1871 34.2507 85.9241 35.7649C84.885 35.8028 83.8349 35.7765 82.7946 35.7801C82.5572 34.1684 82.3893 32.5433 82.172 30.9282C81.5504 32.5183 81.0727 34.1754 80.5099 35.789L77.5461 35.7783C78.4958 32.7479 79.4442 29.6873 80.5632 26.7148L84.7164 26.7237C84.8678 28.6393 85.0401 30.5532 85.233 32.4652C86.934 30.7431 88.1939 28.5384 89.8035 26.7186Z" fill="white"/>
<path d="M137.024 26.5518C138.433 26.5812 140.095 26.6053 141.247 27.5486C141.8 28.0012 142.133 28.6079 142.195 29.3215C142.322 30.7685 141.534 32.5031 140.616 33.5863C139.15 35.3189 137.14 35.797 134.966 35.9747C133.48 36.0126 131.62 35.9026 130.457 34.857C129.897 34.3529 129.602 33.6895 129.565 32.9405C129.489 31.4409 130.262 29.8219 131.249 28.7289C132.771 27.0411 134.858 26.6658 137.024 26.5518Z" fill="white"/>
<path d="M136.647 28.6111C137.116 28.5728 137.819 28.5854 138.216 28.8599C138.501 29.0582 138.678 29.3481 138.738 29.6892C138.893 30.5712 138.37 31.744 137.866 32.4565C137.214 33.3786 136.466 33.7281 135.392 33.9106C134.758 33.9164 133.805 34.035 133.282 33.5989C133.029 33.3876 132.905 33.0672 132.881 32.7437C132.813 31.8266 133.418 30.5898 134.005 29.901C134.732 29.0482 135.547 28.6988 136.647 28.6111Z" fill="#15007E"/>
<path d="M136.126 29.5803C136.544 29.5533 137.19 29.4533 137.577 29.6201C137.782 29.7084 137.789 29.806 137.871 30.0012C137.861 30.3267 137.762 30.6021 137.631 30.8954C137.224 31.8062 136.742 32.5815 135.777 32.9493C135.249 33.0186 134.598 33.0723 134.076 32.9626C134.022 32.9018 133.891 32.7894 133.868 32.7169C133.731 32.278 133.972 31.8133 134.17 31.428C134.638 30.5198 135.131 29.8988 136.126 29.5803Z" fill="#15007E"/>
<path d="M53.3488 26.7249H56.4527C56.2497 27.4701 53.6504 35.4793 53.4798 35.6707C53.4468 35.7077 53.3623 35.7509 53.3193 35.7802L50.1573 35.7783C49.245 34.0322 48.5693 32.0367 47.8004 30.2142C47.1727 32.059 46.5929 33.9242 45.9797 35.7745L42.7827 35.7844C43.6967 32.743 44.8576 29.768 45.7897 26.731C46.9908 26.6972 48.1999 26.7239 49.4019 26.723C50.1075 28.4909 50.8837 30.2242 51.5686 32.0021C52.3103 30.304 52.7064 28.4634 53.3488 26.7249Z" fill="white"/>
<path d="M147.931 26.7451C150.282 26.6561 152.654 26.7189 155.007 26.7239C154.823 27.4237 154.598 28.1045 154.364 28.7887C153.101 28.7855 148.223 28.568 147.296 28.9449C146.952 29.0851 146.473 29.474 146.33 29.8206C146.649 30.7614 151.607 29.8093 153.056 30.8919C153.358 31.1187 153.585 31.4306 153.637 31.8121C153.736 32.5301 153.397 33.5524 152.954 34.1193C151.92 35.4444 150.525 35.5795 148.981 35.7602C146.506 35.8214 144.02 35.7754 141.544 35.7747C141.797 35.0937 142.011 34.3956 142.239 33.7059L146.878 33.7098C147.606 33.7099 148.418 33.777 149.136 33.6805C149.375 33.6472 149.6 33.5534 149.792 33.4082C150.008 33.2417 150.269 33.0113 150.307 32.7287C149.619 31.7497 145.153 32.8939 143.6 31.5955C143.271 31.3208 143.084 30.9691 143.048 30.5416C142.984 29.7829 143.404 28.8036 143.9 28.2279C144.922 27.042 146.469 26.8596 147.931 26.7451Z" fill="white"/>
<path d="M62.7808 26.746C64.4143 26.6827 66.0563 26.7217 67.6909 26.7295C67.4346 27.3943 67.2325 28.0906 67.0079 28.7673C65.5586 28.7513 63.9326 28.5904 62.4961 28.7785C61.4231 28.9189 60.7695 29.39 60.1315 30.2224C62.249 30.1918 64.3669 30.1866 66.4847 30.2067C66.3131 30.8894 66.0808 31.5597 65.8661 32.23C64.2821 32.2293 60.8163 32.0411 59.4715 32.2879C59.3414 32.4296 59.2899 32.47 59.2737 32.6706C59.2447 33.0296 59.3958 33.3499 59.6217 33.6161C61.3779 34.0049 63.5314 33.7917 65.3413 33.7852C65.1102 34.4571 64.8442 35.121 64.5956 35.787C62.5073 35.7707 58.3947 36.2145 56.736 34.7944C56.2205 34.353 55.9385 33.7355 55.8885 33.0633C55.7795 31.5968 56.581 29.9015 57.5197 28.8141C58.9399 27.1689 60.7221 26.9003 62.7808 26.746Z" fill="white"/>
<path d="M99.8488 26.7298C100.843 26.7033 101.843 26.7183 102.837 26.7134C103.458 29.7438 104.313 32.7381 104.929 35.7741L101.555 35.7851L101.185 33.7886L96.9554 33.7936C96.3535 34.3463 95.7999 35.1519 95.2582 35.7761L91.8265 35.7795C93.1772 34.1656 94.612 32.6085 96.0071 31.0319C97.2784 29.5953 98.5229 28.1157 99.8488 26.7298Z" fill="white"/>
<path d="M100.35 29.7295L100.47 29.8223C100.677 30.39 100.695 31.0816 100.763 31.6824L99.2182 31.6751C99.1285 31.6745 99.023 31.6377 98.9343 31.6179C98.9816 31.0568 99.9632 30.1634 100.35 29.7295Z" fill="#15007E"/>
<path d="M68.6647 26.7124L71.829 26.7232C71.4728 27.8426 69.5979 32.8993 69.8332 33.5019C69.8811 33.6245 70.0512 33.7268 70.1715 33.7764C70.8297 34.048 72.2339 34.0058 72.8864 33.7284C73.2405 33.5777 73.5219 33.3514 73.7419 33.0363C74.7433 31.602 75.3436 28.4796 76.068 26.7129L79.162 26.7245L78.6789 28.2056C78.0324 30.2523 77.3018 33.9828 75.292 35.0274C73.3528 36.0352 70.1849 36.1666 68.1213 35.5042C67.563 35.325 67.0021 35.0236 66.7296 34.4782C66.1193 33.2572 68.1727 28.2084 68.6647 26.7124Z" fill="white"/>
<path d="M126.295 26.7453C127.913 26.6804 129.539 26.7201 131.158 26.7308L130.496 28.753C128.982 28.7318 127.212 28.538 125.731 28.7981C124.871 28.949 124.143 29.3636 123.642 30.0873C123.182 30.7537 122.565 32.1393 122.72 32.9376C123.067 34.7234 127.668 33.1522 128.801 33.9094L128.101 35.7839C126.032 35.7811 121.923 36.1972 120.262 34.8349C119.731 34.3989 119.434 33.7818 119.376 33.101C119.25 31.6286 120.003 30.0289 120.938 28.9318C122.322 27.3104 124.274 26.9062 126.295 26.7453Z" fill="white"/>
<path d="M105.363 26.7637C108.818 26.82 112.282 26.7699 115.739 26.7796C115.565 27.4579 115.366 28.1209 115.146 28.7857L111.454 28.7786C111.124 30.2261 110.589 31.6761 110.116 33.0851C109.74 33.9355 109.482 34.8871 109.196 35.7741L105.879 35.7784C106.667 33.4605 107.505 31.1337 108.175 28.7798L104.67 28.7753L105.363 26.7637Z" fill="white"/>
<path d="M116.608 26.7309C117.704 26.7 118.808 26.7247 119.904 26.7239C119.052 29.775 117.937 32.7739 116.943 35.7829L113.649 35.7771C114.511 32.7344 115.664 29.7524 116.608 26.7309Z" fill="white"/>
<path d="M102.373 25.1508L103.974 25.1323C103.635 25.508 103.266 25.8385 102.886 26.173L101.297 26.179C101.635 25.8069 101.992 25.4788 102.373 25.1508Z" fill="white"/>
<path d="M62.7515 8.91128C70.7291 8.40127 73.1858 12.8506 68.7625 19.6433C66.9513 22.4247 63.8748 23.0982 60.775 23.541C58.5739 23.6569 55.3025 23.5042 53.5979 21.9839C50.7706 19.462 52.816 14.3786 54.8652 12.0412C56.9001 9.72001 59.8346 9.08885 62.7515 8.91128Z" fill="white"/>
<path d="M62.3452 12.1542C63.6484 12.0795 65.8423 12.0753 65.8201 13.8026C65.7774 17.1252 64.0224 19.9314 60.7324 20.3637L60.6969 20.3685C59.6522 20.5004 57.3379 20.4 57.2146 19.1436C56.8815 15.753 59.0231 12.508 62.3452 12.1542Z" fill="white"/>
<path d="M62.2155 12.8337C64.7238 12.7281 65.6615 12.8618 64.816 15.7068C64.1468 17.9587 63.0537 19.366 60.6377 19.676C59.9155 19.738 58.7326 19.7667 58.1261 19.3497C57.2702 18.2603 58.4537 15.6826 59.171 14.6957C59.9398 13.6382 60.9186 13.0321 62.2155 12.8337Z" fill="#15007E"/>
<path d="M88.0936 9.14713C91.0517 9.18259 94.0289 9.08956 96.9819 9.18783C99.6075 9.27523 103.071 10.2836 102.916 13.5508C102.914 16.4654 100.482 21.535 97.4627 22.4858C93.7121 23.6669 87.6019 23.2717 83.6246 23.2621C83.8477 22.2946 84.424 20.7385 84.7522 19.7319C85.3093 17.7686 86.1977 15.4242 86.6436 13.5723C88.234 13.5521 89.8244 13.5521 91.4146 13.5723C90.8542 15.6984 89.9876 17.8766 89.4122 20.081C93.0922 20.0897 96.2585 20.6802 97.3862 16.3528C97.7454 14.9743 98.5618 13.4057 97.0808 12.4486C94.6776 12.1729 89.7419 12.4036 87.03 12.3755C87.3155 11.3701 87.7677 10.1868 88.0936 9.14713Z" fill="white"/>
<path d="M46.6872 9.20289C47.0548 9.13526 48.8272 9.14947 49.2706 9.15009L54.5018 9.16541C54.2548 10.1362 53.8597 11.329 53.5652 12.305L48.7805 12.2789C44.1656 12.27 42.7133 13.8955 41.9388 18.5956C41.7985 19.4472 42.8897 19.9788 43.5978 20.0291C46.043 20.2029 48.5656 20.1148 51.0271 20.1005C50.8174 21.0408 50.38 22.3463 50.0677 23.2583C46.4489 23.2752 37.2267 24.2857 37.0498 19.3251C36.8291 13.1351 41.2696 9.8233 46.6872 9.20289Z" fill="white"/>
<path d="M74.0708 9.15283L78.7322 9.16023C78.2431 11.5438 77.048 14.1199 76.4423 16.506C76.227 17.3535 75.487 19.0651 76.1558 19.8146C77.3917 20.4778 81.4764 20.244 83.1573 20.2408C82.9852 20.9785 82.7244 21.7615 82.4979 22.4896C82.4072 22.7592 82.3419 23.0722 82.1228 23.236C81.3871 23.3414 80.5638 23.2685 79.7979 23.2576C77.7438 23.2092 75.5407 23.4534 73.5461 22.857C69.5736 21.669 71.4203 17.5528 72.2671 14.8742L74.0708 9.15283Z" fill="white"/>
<path d="M104.035 9.15594L108.945 9.15283C109.066 12.1009 109.284 15.0288 109.408 17.9675C111.183 15.436 113.381 11.8281 115.034 9.15374L120.167 9.15462L120.596 17.9874C122.228 15.3496 124.695 11.6839 126.49 9.15449L131.421 9.16708C130.978 9.92939 130.016 11.2092 129.476 11.9702C128.092 14.1131 126.261 16.4479 124.815 18.6175C124.177 19.5761 122.181 22.4957 121.492 23.2372C119.904 23.3251 117.918 23.2671 116.3 23.262C116.101 20.7236 116.068 17.5301 115.98 14.9502C114.116 17.4763 112.464 20.7253 110.583 23.2491C108.955 23.3085 107.106 23.2636 105.462 23.2608C105.395 21.8564 105.164 20.1082 105.023 18.6745C104.718 15.4991 104.389 12.3261 104.035 9.15594Z" fill="white"/>
<path d="M138.171 9.20392C138.769 9.12431 140.293 9.1523 140.953 9.15196L146.091 9.15483C145.727 10.1954 145.411 11.2665 145.088 12.3215C144.039 12.3365 142.971 12.2957 141.922 12.3134C138.83 12.3656 136.944 11.8371 134.864 14.5016C137.621 14.6545 141.544 14.5507 144.362 14.534C144.023 15.6249 143.672 16.7119 143.309 17.7947C140.169 17.7899 136.774 17.7213 133.653 17.8198C133.621 18.4603 133.617 18.7836 133.677 19.4207C133.699 19.4452 133.721 19.4689 133.745 19.4922C134.725 20.4719 140.965 20.113 142.583 20.1074C142.261 21.1881 141.967 22.1902 141.576 23.2484C140.363 23.2897 139.103 23.272 137.885 23.2725C134.619 23.288 129.082 23.63 128.61 19.1874C128.374 16.9719 129.625 14.1372 130.976 12.4242C132.833 10.07 135.331 9.49784 138.171 9.20392Z" fill="white"/>
<path d="M160.471 9.14844L165.114 9.1581C164.818 10.1631 161.608 19.1003 162.314 19.6722C163.377 20.5336 167.787 20.2251 169.515 20.2591C169.27 21.0453 169.039 21.836 168.824 22.631C168.814 22.6645 168.804 22.6977 168.794 22.7308C168.647 23.188 168.552 23.2779 168.059 23.2672C165.429 23.2102 162.212 23.5747 159.708 22.7719C155.974 21.5745 157.725 17.6557 158.533 15.0733C159.147 13.1086 159.762 11.1053 160.471 9.14844Z" fill="white"/>
<path d="M147.544 9.14941L152.248 9.15612C151.421 12.3922 149.953 15.5925 149.366 18.8732C149.083 20.4559 151.71 20.2427 152.712 20.2494C154.016 20.2582 155.35 20.2375 156.673 20.251C156.477 20.998 156.218 21.7581 155.979 22.4946C155.695 23.293 155.624 23.3324 154.729 23.2943C152.866 23.2077 151.025 23.3233 149.161 23.2173C142.689 22.85 144.617 18.2959 145.965 14.202C146.524 12.5282 147.05 10.8436 147.544 9.14941Z" fill="white"/>
<path d="M193.097 22.5942C194.482 22.5193 196.208 22.5771 197.616 22.6014C197.238 23.4298 191.925 32.4522 191.597 32.6936C190.106 32.7574 188.372 32.7091 186.879 32.676C188.102 31.1098 192.089 23.1323 193.097 22.5942Z" fill="white"/>
</svg>
